<svg xmlns="http://www.w3.org/2000/svg" viewBox="0 0 1920 1080" preserveAspectRatio="none">
  <defs>
    <!-- Base dark gradient so it's not flat -->
    <linearGradient id="bg" x1="0" y1="0" x2="1" y2="1">
      <stop offset="0" stop-color="#070a12"></stop>
      <stop offset="0.55" stop-color="#0b0f1a"></stop>
      <stop offset="1" stop-color="#05070d"></stop>
    </linearGradient>

    <!-- "CMB-like" noise texture -->
    <filter id="cmbNoise" x="-20%" y="-20%" width="140%" height="140%">
      <feTurbulence type="fractalNoise" baseFrequency="0.9" numOctaves="3" seed="8" result="noise"></feTurbulence>
      <feComponentTransfer in="noise" result="noiseSoft">
        <feFuncR type="gamma" amplitude="0.6" exponent="1.8" offset="0.0"></feFuncR>
        <feFuncG type="gamma" amplitude="0.6" exponent="1.8" offset="0.0"></feFuncG>
        <feFuncB type="gamma" amplitude="0.6" exponent="1.8" offset="0.0"></feFuncB>
      </feComponentTransfer>
      <feGaussianBlur in="noiseSoft" stdDeviation="0.35" result="noiseBlur"></feGaussianBlur>
      <feColorMatrix in="noiseBlur" type="matrix" values="
        0.55 0    0    0 0
        0    0.65 0    0 0
        0    0    0.90 0 0
        0    0    0    0.12 0" result="noiseTint"></feColorMatrix>
    </filter>

    <!-- Brighter, punchier speck -->
    <radialGradient id="speck" cx="50%" cy="50%" r="50%">
      <stop offset="0%" stop-color="#f4f8ff" stop-opacity="1"></stop>
      <stop offset="28%" stop-color="#d7e6ff" stop-opacity="0.65"></stop>
      <stop offset="65%" stop-color="#bcd0ff" stop-opacity="0.22"></stop>
      <stop offset="100%" stop-color="#bcd0ff" stop-opacity="0"></stop>
    </radialGradient>

    <!-- Stronger glow for visibility -->
    <filter id="speckGlow" x="-250%" y="-250%" width="500%" height="500%">
      <feGaussianBlur stdDeviation="1.6" result="blur"></feGaussianBlur>
      <feMerge>
        <feMergeNode in="blur"></feMergeNode>
        <feMergeNode in="SourceGraphic"></feMergeNode>
      </feMerge>
    </filter>

    <!-- Gentle vignette to frame content -->
    <radialGradient id="vignette" cx="50%" cy="45%" r="75%">
      <stop offset="60%" stop-color="#000" stop-opacity="0"></stop>
      <stop offset="100%" stop-color="#000" stop-opacity="0.45"></stop>
    </radialGradient>
  </defs>

  <!-- Background gradient -->
  <rect width="1920" height="1080" fill="url(#bg)"></rect>

  <!-- Overlay the subtle "CMB" noise -->
  <rect width="1920" height="1080" filter="url(#cmbNoise)" opacity="1"></rect>

  <!-- Many more, more visible specks -->
  <g opacity="0.95" filter="url(#speckGlow)">
    <!-- top band -->
    <circle cx="90" cy="80" r="2.8" fill="url(#speck)"/>
    <circle cx="160" cy="130" r="2.0" fill="url(#speck)"/>
    <circle cx="240" cy="60" r="2.4" fill="url(#speck)"/>
    <circle cx="320" cy="140" r="1.9" fill="url(#speck)"/>
    <circle cx="420" cy="90" r="2.6" fill="url(#speck)"/>
    <circle cx="520" cy="160" r="2.1" fill="url(#speck)"/>
    <circle cx="620" cy="70" r="2.7" fill="url(#speck)"/>
    <circle cx="710" cy="120" r="2.2" fill="url(#speck)"/>
    <circle cx="820" cy="85" r="2.5" fill="url(#speck)"/>
    <circle cx="910" cy="150" r="2.0" fill="url(#speck)"/>
    <circle cx="1020" cy="65" r="2.8" fill="url(#speck)"/>
    <circle cx="1120" cy="135" r="2.1" fill="url(#speck)"/>
    <circle cx="1220" cy="95" r="2.6" fill="url(#speck)"/>
    <circle cx="1320" cy="155" r="2.0" fill="url(#speck)"/>
    <circle cx="1420" cy="75" r="2.7" fill="url(#speck)"/>
    <circle cx="1520" cy="125" r="2.2" fill="url(#speck)"/>
    <circle cx="1620" cy="90" r="2.5" fill="url(#speck)"/>
    <circle cx="1720" cy="150" r="2.1" fill="url(#speck)"/>
    <circle cx="1820" cy="70" r="2.8" fill="url(#speck)"/>

    <!-- upper-mid -->
    <circle cx="120" cy="260" r="2.1" fill="url(#speck)"/>
    <circle cx="210" cy="320" r="2.6" fill="url(#speck)"/>
    <circle cx="300" cy="240" r="2.0" fill="url(#speck)"/>
    <circle cx="390" cy="310" r="2.4" fill="url(#speck)"/>
    <circle cx="480" cy="270" r="2.8" fill="url(#speck)"/>
    <circle cx="570" cy="340" r="2.0" fill="url(#speck)"/>
    <circle cx="660" cy="255" r="2.6" fill="url(#speck)"/>
    <circle cx="750" cy="325" r="2.2" fill="url(#speck)"/>
    <circle cx="840" cy="265" r="2.5" fill="url(#speck)"/>
    <circle cx="930" cy="335" r="2.1" fill="url(#speck)"/>
    <circle cx="1020" cy="250" r="2.7" fill="url(#speck)"/>
    <circle cx="1110" cy="320" r="2.0" fill="url(#speck)"/>
    <circle cx="1200" cy="270" r="2.6" fill="url(#speck)"/>
    <circle cx="1290" cy="340" r="2.2" fill="url(#speck)"/>
    <circle cx="1380" cy="255" r="2.8" fill="url(#speck)"/>
    <circle cx="1470" cy="325" r="2.1" fill="url(#speck)"/>
    <circle cx="1560" cy="265" r="2.5" fill="url(#speck)"/>
    <circle cx="1650" cy="335" r="2.0" fill="url(#speck)"/>
    <circle cx="1740" cy="250" r="2.7" fill="url(#speck)"/>
    <circle cx="1830" cy="320" r="2.2" fill="url(#speck)"/>

    <!-- mid -->
    <circle cx="80" cy="470" r="2.4" fill="url(#speck)"/>
    <circle cx="180" cy="520" r="2.0" fill="url(#speck)"/>
    <circle cx="280" cy="460" r="2.8" fill="url(#speck)"/>
    <circle cx="380" cy="540" r="2.2" fill="url(#speck)"/>
    <circle cx="480" cy="480" r="2.6" fill="url(#speck)"/>
    <circle cx="580" cy="560" r="2.1" fill="url(#speck)"/>
    <circle cx="680" cy="470" r="2.7" fill="url(#speck)"/>
    <circle cx="780" cy="530" r="2.0" fill="url(#speck)"/>
    <circle cx="880" cy="490" r="2.5" fill="url(#speck)"/>
    <circle cx="980" cy="555" r="2.2" fill="url(#speck)"/>
    <circle cx="1080" cy="470" r="2.8" fill="url(#speck)"/>
    <circle cx="1180" cy="540" r="2.0" fill="url(#speck)"/>
    <circle cx="1280" cy="480" r="2.6" fill="url(#speck)"/>
    <circle cx="1380" cy="560" r="2.1" fill="url(#speck)"/>
    <circle cx="1480" cy="470" r="2.7" fill="url(#speck)"/>
    <circle cx="1580" cy="530" r="2.0" fill="url(#speck)"/>
    <circle cx="1680" cy="490" r="2.5" fill="url(#speck)"/>
    <circle cx="1780" cy="555" r="2.2" fill="url(#speck)"/>
    <circle cx="1880" cy="470" r="2.8" fill="url(#speck)"/>

    <!-- lower-mid -->
    <circle cx="120" cy="690" r="2.1" fill="url(#speck)"/>
    <circle cx="220" cy="760" r="2.6" fill="url(#speck)"/>
    <circle cx="320" cy="700" r="2.0" fill="url(#speck)"/>
    <circle cx="420" cy="770" r="2.4" fill="url(#speck)"/>
    <circle cx="520" cy="710" r="2.8" fill="url(#speck)"/>
    <circle cx="620" cy="780" r="2.0" fill="url(#speck)"/>
    <circle cx="720" cy="695" r="2.6" fill="url(#speck)"/>
    <circle cx="820" cy="765" r="2.2" fill="url(#speck)"/>
    <circle cx="920" cy="705" r="2.5" fill="url(#speck)"/>
    <circle cx="1020" cy="775" r="2.1" fill="url(#speck)"/>
    <circle cx="1120" cy="690" r="2.7" fill="url(#speck)"/>
    <circle cx="1220" cy="770" r="2.0" fill="url(#speck)"/>
    <circle cx="1320" cy="710" r="2.6" fill="url(#speck)"/>
    <circle cx="1420" cy="780" r="2.2" fill="url(#speck)"/>
    <circle cx="1520" cy="695" r="2.8" fill="url(#speck)"/>
    <circle cx="1620" cy="765" r="2.1" fill="url(#speck)"/>
    <circle cx="1720" cy="705" r="2.5" fill="url(#speck)"/>
    <circle cx="1820" cy="775" r="2.0" fill="url(#speck)"/>

    <!-- bottom band -->
    <circle cx="100" cy="940" r="2.7" fill="url(#speck)"/>
    <circle cx="220" cy="980" r="2.1" fill="url(#speck)"/>
    <circle cx="340" cy="930" r="2.8" fill="url(#speck)"/>
    <circle cx="460" cy="1000" r="2.2" fill="url(#speck)"/>
    <circle cx="580" cy="950" r="2.6" fill="url(#speck)"/>
    <circle cx="700" cy="1010" r="2.0" fill="url(#speck)"/>
    <circle cx="820" cy="940" r="2.7" fill="url(#speck)"/>
    <circle cx="940" cy="990" r="2.1" fill="url(#speck)"/>
    <circle cx="1060" cy="930" r="2.8" fill="url(#speck)"/>
    <circle cx="1180" cy="1000" r="2.2" fill="url(#speck)"/>
    <circle cx="1300" cy="950" r="2.6" fill="url(#speck)"/>
    <circle cx="1420" cy="1010" r="2.0" fill="url(#speck)"/>
    <circle cx="1540" cy="940" r="2.7" fill="url(#speck)"/>
    <circle cx="1660" cy="990" r="2.1" fill="url(#speck)"/>
    <circle cx="1780" cy="930" r="2.8" fill="url(#speck)"/>
  </g>

  <!-- Vignette overlay -->
  <rect width="1920" height="1080" fill="url(#vignette)"></rect>
</svg>
